<svg xmlns="http://www.w3.org/2000/svg" xmlns:xlink="http://www.w3.org/1999/xlink" width="198" height="41" viewBox="0 0 198 41">
    <defs>
        <path id="0rwj7wo7pa" d="M.353.3C.31.345.287.4.287.46c0 .062.024.116.067.158C.397.659.452.68.51.68.57.681.622.659.665.619.709.576.733.522.733.46.733.402.71.346.668.304.626.257.568.234.508.234.453.234.396.256.354.301"/>
        <path id="1ftv7znw4d" d="M.912.506C.686.67.506.894.377 1.17s-.195.584-.195.911c0 .33.066.636.195.914.13.28.31.504.535.667.223.165.47.248.735.248.222 0 .434-.06.631-.18.2-.116.37-.285.509-.5l.065-.101-.311-.299-.064.096c-.103.155-.23.277-.373.363-.318.191-.695.169-.993-.048C.946 3.12.818 2.96.72 2.75c-.096-.202-.146-.429-.146-.67 0-.24.05-.466.146-.671.098-.207.226-.367.391-.488.289-.21.656-.238.967-.063.138.08.255.186.357.326l.069.095.3-.33-.071-.094C2.59.667 2.424.518 2.236.416 2.05.31 1.847.258 1.646.258c-.257 0-.513.083-.734.247"/>
        <path id="3fvnt8ounf" d="M.901.507c-.27.161-.486.386-.643.667-.156.277-.234.583-.234.912 0 .33.078.636.234.915.158.279.373.503.642.663.267.163.564.246.882.246.317 0 .613-.083.88-.244.27-.162.485-.386.643-.665.155-.28.233-.586.233-.915 0-.329-.078-.635-.233-.912-.157-.281-.372-.506-.64-.666C2.395.346 2.087.265 1.78.265c-.306 0-.614.08-.88.242m.239 2.734c-.196-.119-.355-.284-.47-.487-.116-.203-.176-.427-.176-.668 0-.24.06-.465.175-.668.116-.203.275-.366.471-.486.195-.117.41-.18.642-.18.23 0 .446.063.641.18.199.12.35.28.467.485.115.203.174.429.174.67 0 .241-.059.467-.174.667-.117.207-.268.367-.467.487-.195.118-.418.178-.64.178-.225 0-.448-.06-.643-.178"/>
        <path id="3cid07xluh" d="M1.867 2.64L0.249 0.101 0.249 3.884 0.673 3.884 0.673 1.592 1.867 3.464 3.043 1.6 3.043 3.884 3.466 3.884 3.466 0.098z"/>
        <path id="auq5ju2g4j" d="M0.368 0.43L25.546 0.43 25.546 29.692 0.368 29.692z"/>
        <path id="ljj1n9ksnl" d="M22.985 3.192C21.117 1.04 18.295.038 14.147.038c-2.351 0-4.566.608-6.456 1.765V.52H0v27.168h7.691V8.79c1.396-1.225 3.174-1.847 5.285-1.847 3.295 0 4.896 1.843 4.896 5.634v15.11h7.641V12.674c0-2.146-.037-3.171-.238-3.936 1.418-1.24 2.906-1.794 4.79-1.794 3.541 0 5.335 1.896 5.335 5.634v15.11h7.641v-15.11c0-8.674-3.638-12.54-11.801-12.54-2.997 0-5.91 1.115-8.255 3.154"/>
        <path id="lz97e5awjo" d="M14.768.156C6.628.156.005 6.516.005 14.33c0 7.79 6.623 14.123 14.763 14.123 4.073 0 7.991-2.057 10.482-5.504l.22-.308-4.888-4.669-.276.428c-1.257 1.932-3.325 3.085-5.538 3.085-4.027 0-7.303-3.209-7.303-7.155 0-3.973 3.276-7.204 7.303-7.204 2.203 0 4.274 1.137 5.541 3.041l.273.41 4.987-4.657-.223-.308C22.806 2.144 18.95.156 14.768.156z"/>
        <path id="ml89fvu8rr" d="M.49 14.298c0 8.102 5.94 14.211 13.813 14.211 5.04 0 9.577-2.129 12.14-5.688l.237-.327-4.938-4.192-.264.367c-1.378 1.927-3.833 3.123-6.405 3.123-3.451 0-6.06-1.94-6.93-5.097h19.248v-.43c0-.202.01-.427.023-.661.013-.277.026-.57.026-.861C27.44 5.81 22.285.038 14.303.038 6.43.038.49 6.17.49 14.298m13.813-7.936c4.233 0 5.534 2.668 5.843 5.093H8.18c.786-3.07 3.192-5.093 6.123-5.093"/>
        <linearGradient id="2d6t8gu15b" x1="145.993%" x2="1223.118%" y1="24.297%" y2="24.297%">
            <stop offset="0%" stop-color="#313435"/>
            <stop offset="100%" stop-color="#009ABD"/>
        </linearGradient>
        <linearGradient id="motg4d56qm" x1="19.011%" x2="274.348%" y1="55.577%" y2="12.598%">
            <stop offset="0%" stop-color="#2FE9CA"/>
            <stop offset="100%" stop-color="#009ABD"/>
        </linearGradient>
        <linearGradient id="x95hgf38qp" x1="-112.87%" x2="234.12%" y1="99.883%" y2="-2.821%">
            <stop offset="0%" stop-color="#2FE9CA"/>
            <stop offset="100%" stop-color="#009ABD"/>
        </linearGradient>
        <linearGradient id="0zim05xqls" x1="-197.355%" x2="163.113%" y1="120.965%" y2="18.265%">
            <stop offset="0%" stop-color="#2FE9CA"/>
            <stop offset="100%" stop-color="#009ABD"/>
        </linearGradient>
    </defs>
    <g fill="none" fill-rule="evenodd">
        <g>
            <g>
                <path fill="#50585B" d="M121.77 18.81L121.77 11.88 118.324 16.7 114.84 11.884 114.84 18.81 115.538 18.81 115.538 14.045 118.325 17.895 121.072 14.06 121.072 18.81zM127.367 13.85v2.914l-2.909-1.49 2.91-1.423zm2.323 4.96v-.849l-1.63-.841v-3.608l1.63-.798v-.834l-6.93 3.364 6.754 3.474.176.092z" transform="translate(-20 -14) translate(20 14)"/>
                <g fill="#50585B">
                    <path d="M5.525 5.699c-.255.308-.564.552-.92.723-.356.173-.736.26-1.13.26-.477 0-.922-.12-1.323-.357-.404-.238-.729-.563-.967-.97-.238-.404-.36-.852-.36-1.331 0-.48.122-.929.36-1.335.24-.406.564-.732.967-.969.401-.235.846-.355 1.322-.355.37 0 .728.077 1.066.23.337.155.634.373.88.649l.081.092.526-.464-.084-.09c-.321-.346-.7-.618-1.127-.808-.427-.19-.878-.287-1.342-.287-.599 0-1.16.153-1.67.454-.51.297-.917.706-1.215 1.215-.295.507-.444 1.067-.444 1.668 0 .598.149 1.161.444 1.672.298.51.706.922 1.215 1.22.51.3 1.071.453 1.67.453.503 0 .987-.11 1.438-.327.449-.215.837-.525 1.154-.919l.077-.096-.543-.42-.075.092zM11.422 6.682c-.478 0-.923-.12-1.324-.356-.401-.238-.726-.562-.966-.966-.237-.4-.359-.847-.359-1.327s.122-.927.359-1.328c.24-.404.565-.728.966-.966.401-.234.848-.356 1.324-.356.476 0 .921.122 1.322.356.402.238.725.562.96.964.236.403.355.851.355 1.33 0 .48-.12.927-.355 1.329-.235.402-.558.726-.96.964-.4.235-.846.356-1.322.356m3.329-2.649c0-.598-.15-1.161-.446-1.673-.294-.51-.703-.918-1.213-1.215-.513-.298-1.073-.448-1.67-.448-.598 0-1.16.15-1.672.448-.51.297-.918.705-1.213 1.215-.296.51-.446 1.072-.446 1.673s.15 1.163.446 1.673c.295.509.703.919 1.213 1.215.512.297 1.074.448 1.672.448.597 0 1.157-.15 1.67-.448.51-.296.919-.706 1.213-1.215.296-.513.446-1.074.446-1.673M17.783 2.4L22.17 7.619 22.17.764 21.489.764 21.489 5.685 17.101.475 17.101 7.3 17.783 7.3zM28.476 4.023c-.128-.069-.276-.126-.457-.174-.17-.047-.353-.085-.542-.11-.18-.025-.294-.042-.342-.05-.258-.031-.47-.062-.633-.09-.153-.027-.296-.071-.42-.13-.203-.1-.375-.244-.512-.424-.134-.176-.201-.351-.201-.522 0-.142.038-.275.12-.409.08-.136.2-.261.358-.379.158-.119.347-.211.56-.273.433-.128.93-.128 1.36 0 .212.062.403.155.564.275.15.11.265.236.346.371.077.132.118.265.125.409l.008.198.667-.371-.015-.085c-.07-.403-.309-.76-.71-1.065-.475-.337-1.034-.506-1.662-.506-.312 0-.612.043-.894.129-.286.088-.545.216-.767.377-.235.171-.418.37-.546.595-.13.226-.195.473-.195.734 0 .322.098.623.293.897.193.269.461.49.799.654.214.102.47.178.76.223l.072.012.425.067c.534.062.907.146 1.106.246.209.115.375.252.492.411.113.157.167.317.167.491 0 .304-.153.564-.47.793-.333.248-.751.374-1.242.374-.24 0-.47-.032-.688-.096-.208-.063-.396-.156-.558-.28-.302-.204-.456-.459-.475-.778l-.011-.193-.667.369.017.086c.083.422.326.782.72 1.073.225.161.483.288.768.375.285.087.585.131.894.131.627 0 1.185-.17 1.661-.506.235-.172.416-.375.543-.608.126-.233.189-.483.189-.74 0-.302-.09-.587-.269-.848-.175-.255-.424-.476-.738-.653M37.088 4.807V.764h-.68v4.043c0 .251-.049.499-.144.73-.093.229-.228.43-.398.599-.174.173-.378.31-.604.405-.44.184-.966.19-1.416 0-.226-.094-.429-.23-.606-.405-.167-.167-.3-.37-.396-.6-.093-.23-.143-.474-.143-.729V.764h-.682v4.043c0 .343.063.674.189.985.126.313.313.588.546.814.237.242.515.432.827.565.31.131.637.198.97.198.344 0 .675-.067.983-.198.306-.133.582-.323.817-.562.237-.23.423-.504.55-.817.125-.308.187-.64.187-.985M40.482.764L39.8.764 39.8 7.301 44.04 7.301 44.04 6.624 40.482 6.624zM47.913 7.3L48.605 7.3 48.605 1.451 51.11 1.451 51.11.764 45.398.764 45.398 1.451 47.913 1.451zM55.257 2.176l1.27 2.85h-2.598l1.328-2.85zM53.61 5.704h3.218L57.54 7.3h.745L55.282.514l-3.097 6.615-.08.171h.755l.75-1.596zM64.976.764L59.263.764 59.263 1.451 61.778 1.451 61.778 7.301 62.47 7.301 62.47 1.451 64.976 1.451zM67.433 7.301L68.115 7.301 68.115.765 67.433.765zM73.962 6.682c-.478 0-.923-.12-1.323-.356-.402-.238-.727-.562-.968-.966-.237-.4-.358-.847-.358-1.327s.121-.927.358-1.328c.241-.404.566-.728.968-.966.4-.234.846-.356 1.323-.356.476 0 .921.122 1.322.356.402.238.725.562.961.964.236.403.355.851.355 1.33 0 .48-.12.927-.355 1.329-.236.402-.56.726-.961.964-.4.235-.846.356-1.322.356m1.67-5.537c-.512-.298-1.074-.448-1.67-.448-.598 0-1.16.15-1.671.448-.51.297-.92.705-1.214 1.215-.296.51-.446 1.072-.446 1.673s.15 1.163.446 1.673c.295.509.704.919 1.214 1.215.511.297 1.073.448 1.67.448s1.16-.15 1.67-.448c.51-.296.92-.706 1.214-1.215.296-.513.447-1.074.447-1.673 0-.598-.15-1.161-.447-1.673-.294-.51-.703-.918-1.213-1.215M84.029.764L84.029 5.684 79.641.475 79.641 7.301 80.322 7.301 80.322 2.401 84.71 7.62 84.71.764zM.545 17.59L4.894 17.59 4.894 16.893 1.226 16.893 1.226 14.665 4.084 14.665 4.084 13.979 1.226 13.979 1.226 11.74 4.894 11.74 4.894 11.053.545 11.053zM10.905 14.314c-.125-.07-.275-.128-.456-.175-.17-.047-.352-.084-.542-.11-.18-.025-.294-.042-.342-.05-.259-.032-.47-.063-.634-.09-.151-.028-.295-.072-.42-.13-.202-.1-.374-.243-.512-.425-.133-.174-.201-.35-.201-.522 0-.14.04-.274.12-.408.082-.138.204-.264.359-.379.157-.12.345-.211.56-.274.438-.129.933-.129 1.36 0 .211.063.403.156.565.274.15.115.266.24.344.373.078.134.12.267.125.408l.007.199.668-.372-.014-.083c-.07-.404-.308-.762-.711-1.066-.473-.337-1.033-.507-1.662-.507-.311 0-.612.043-.893.13-.286.089-.544.216-.767.377-.234.17-.417.37-.546.595-.131.228-.196.474-.196.733 0 .323.099.624.294.898.192.268.46.488.798.654.214.102.47.177.76.224l.497.077c.536.063.909.147 1.107.247.21.114.375.252.49.41.114.156.168.316.168.492 0 .303-.153.564-.468.793-.334.247-.752.374-1.244.374-.24 0-.469-.032-.687-.097-.21-.062-.397-.155-.559-.28-.302-.204-.456-.46-.475-.776l-.009-.195-.668.37.017.085c.083.423.327.784.721 1.073.224.162.481.288.767.375.285.089.584.132.893.132.628 0 1.186-.17 1.662-.507.234-.172.417-.375.542-.607.126-.233.19-.482.19-.74 0-.301-.09-.586-.268-.847-.176-.256-.424-.476-.74-.653M13.834 11.741L16.351 11.741 16.351 17.59 17.041 17.59 17.041 11.741 19.548 11.741 19.548 11.054 13.834 11.054zM26.09 13.979L22.59 13.979 22.59 11.054 21.898 11.054 21.898 17.589 22.59 17.589 22.59 14.666 26.09 14.666 26.09 17.589 26.773 17.589 26.773 11.054 26.09 11.054zM33.141 9.427L31.965 9.427 30.968 10.647 31.778 10.647zM29.582 17.59L33.929 17.59 33.929 16.893 30.264 16.893 30.264 14.665 33.12 14.665 33.12 13.979 30.264 13.979 30.264 11.74 33.929 11.74 33.929 11.053 29.582 11.053zM36.359 11.741L38.874 11.741 38.874 17.59 39.566 17.59 39.566 11.741 42.072 11.741 42.072 11.054 36.359 11.054zM44.53 17.59L45.211 17.59 45.211 11.054 44.53 11.054zM51.058 16.971c-.478 0-.923-.12-1.325-.356-.4-.237-.725-.561-.966-.965-.237-.4-.358-.847-.358-1.327s.121-.927.358-1.329c.241-.404.566-.728.966-.965.402-.234.848-.356 1.325-.356.476 0 .921.122 1.322.356.402.237.725.561.96.964.236.403.355.85.355 1.33 0 .35-.067.691-.196 1.01-.115.279-.27.533-.465.756l-1.902-2.044-.51.464 1.889 2.03c-.188.124-.396.223-.62.297-.27.089-.552.135-.833.135m3.077-1.369c.167-.404.251-.835.251-1.28 0-.598-.149-1.16-.445-1.672-.294-.51-.703-.919-1.214-1.215-.512-.299-1.073-.448-1.67-.448s-1.158.15-1.665.448c-.508.296-.916.705-1.215 1.215-.299.51-.45 1.073-.45 1.673 0 .6.151 1.161.45 1.672.3.51.707.92 1.215 1.215.507.298 1.068.448 1.666.448.367 0 .726-.06 1.073-.18.305-.109.592-.254.854-.438l.546.55h.93l-.955-1c.264-.289.475-.62.629-.988M61.037 15.097c0 .254-.05.5-.144.729-.092.228-.226.429-.396.6-.175.173-.378.309-.606.405-.439.184-.963.19-1.414 0-.228-.095-.43-.231-.606-.405-.17-.171-.304-.372-.396-.6-.095-.23-.143-.475-.143-.729v-4.043h-.682v4.043c0 .345.062.676.187.984.127.311.313.587.548.814.237.243.513.431.825.565.311.132.637.199.97.199.343 0 .675-.067.985-.199.306-.132.582-.322.815-.561.237-.23.424-.505.55-.818.126-.31.189-.641.189-.984v-4.043h-.682v4.043zM64.43 17.59L68.779 17.59 68.779 16.893 65.111 16.893 65.111 14.665 67.969 14.665 67.969 13.979 65.111 13.979 65.111 11.74 68.779 11.74 68.779 11.053 64.43 11.053z" transform="translate(-20 -14) translate(20 14) translate(112.86 21.78)"/>
                </g>
                <g transform="translate(-20 -14) translate(20 14) translate(184.14 38.61)">
                    <mask id="bxl2sdwpic" fill="#fff">
                        <use xlink:href="#0rwj7wo7pa"/>
                    </mask>
                    <path fill="url(#2d6t8gu15b)" d="M.353.3C.31.345.287.4.287.46c0 .062.024.116.067.158C.397.659.452.68.51.68.57.681.622.659.665.619.709.576.733.522.733.46.733.402.71.346.668.304.626.257.568.234.508.234.453.234.396.256.354.301" mask="url(#bxl2sdwpic)"/>
                </g>
                <g transform="translate(-20 -14) translate(20 14) translate(186.12 36.63)">
                    <mask id="q51tqoeibe" fill="#fff">
                        <use xlink:href="#1ftv7znw4d"/>
                    </mask>
                    <path fill="#50585B" d="M.912.506C.686.67.506.894.377 1.17s-.195.584-.195.911c0 .33.066.636.195.914.13.28.31.504.535.667.223.165.47.248.735.248.222 0 .434-.06.631-.18.2-.116.37-.285.509-.5l.065-.101-.311-.299-.064.096c-.103.155-.23.277-.373.363-.318.191-.695.169-.993-.048C.946 3.12.818 2.96.72 2.75c-.096-.202-.146-.429-.146-.67 0-.24.05-.466.146-.671.098-.207.226-.367.391-.488.289-.21.656-.238.967-.063.138.08.255.186.357.326l.069.095.3-.33-.071-.094C2.59.667 2.424.518 2.236.416 2.05.31 1.847.258 1.646.258c-.257 0-.513.083-.734.247" mask="url(#q51tqoeibe)"/>
                </g>
                <g transform="translate(-20 -14) translate(20 14) translate(189.09 36.63)">
                    <mask id="an04tw87ng" fill="#fff">
                        <use xlink:href="#3fvnt8ounf"/>
                    </mask>
                    <path fill="#50585B" d="M.901.507c-.27.161-.486.386-.643.667-.156.277-.234.583-.234.912 0 .33.078.636.234.915.158.279.373.503.642.663.267.163.564.246.882.246.317 0 .613-.083.88-.244.27-.162.485-.386.643-.665.155-.28.233-.586.233-.915 0-.329-.078-.635-.233-.912-.157-.281-.372-.506-.64-.666C2.395.346 2.087.265 1.78.265c-.306 0-.614.08-.88.242m.239 2.734c-.196-.119-.355-.284-.47-.487-.116-.203-.176-.427-.176-.668 0-.24.06-.465.175-.668.116-.203.275-.366.471-.486.195-.117.41-.18.642-.18.23 0 .446.063.641.18.199.12.35.28.467.485.115.203.174.429.174.67 0 .241-.059.467-.174.667-.117.207-.268.367-.467.487-.195.118-.418.178-.64.178-.225 0-.448-.06-.643-.178" mask="url(#an04tw87ng)"/>
                </g>
                <g transform="translate(-20 -14) translate(20 14) translate(194.04 36.63)">
                    <mask id="addme7k77i" fill="#fff">
                        <use xlink:href="#3cid07xluh"/>
                    </mask>
                    <path fill="#50585B" d="M1.867 2.64L0.249 0.101 0.249 3.884 0.673 3.884 0.673 1.592 1.867 3.464 3.043 1.6 3.043 3.884 3.466 3.884 3.466 0.098z" mask="url(#addme7k77i)"/>
                </g>
                <g transform="translate(-20 -14) translate(20 14) translate(45.54 10.89)">
                    <mask id="ztyrdhmdwk" fill="#fff">
                        <use xlink:href="#auq5ju2g4j"/>
                    </mask>
                    <path fill="#50585B" d="M17.844 1.145c-.734-.18-1.49-.289-2.248-.326l.017-.39c.78.039 1.557.151 2.314.335l-.083.38zm-6.755.206l-.097-.377c.748-.213 1.517-.368 2.29-.46l.041.39c-.754.087-1.505.238-2.234.447zm10.902 1.691c-.631-.446-1.3-.832-1.993-1.149l.149-.359c.71.328 1.4.725 2.049 1.184l-.205.324zm-15.045.264l-.201-.328c.65-.445 1.34-.842 2.05-1.178l.15.357c-.693.327-1.365.713-1.999 1.149zm18.302 3.052l-.043-.063c-.44-.627-.927-1.214-1.45-1.746l.256-.28c.537.546 1.038 1.15 1.491 1.795l.044.064-.298.23zm-21.656.165l-.29-.242c.48-.64 1.016-1.245 1.595-1.8l.247.29c-.564.54-1.086 1.128-1.552 1.752zm13.6 1.82c-.705-.281-1.443-.422-2.191-.422V7.53c.793 0 1.573.15 2.32.448l-.13.366zm-4.905.143l-.14-.36c.725-.318 1.496-.511 2.288-.574l.03.388c-.756.061-1.487.245-2.178.546zm10.238 1.242l-.25-.287L23.97 7.79l.25.289-1.695 1.65zm-21.106.989l-.35-.125c.248-.774.565-1.533.941-2.257l.324.186c-.367.706-.674 1.443-.915 2.196zm19.252.816l-.132-.176-.268-.419c-.33-.52-.722-.987-1.165-1.39l.241-.295c.467.426.882.918 1.23 1.466l.268.42-.147.105.131.134-.158.155zm-11.72.006l-.319-.196c.4-.718.908-1.361 1.509-1.91l.24.294c-.57.522-1.05 1.132-1.43 1.812zM.372 15.45c-.002-.124-.004-.248-.004-.37 0-.704.05-1.408.15-2.092l.363.06c-.095.664-.143 1.348-.144 2.032 0 .119.003.24.005.36l-.37.01zm7.374.71c-.05-.353-.075-.716-.076-1.08 0-.473.043-.947.128-1.41l.363.075c-.081.44-.122.887-.122 1.335.001.344.024.688.072 1.023l-.365.057zm13.884 3.839l-.905-.9-.15.24c-.066.107-.135.21-.205.312l-.297-.231c.066-.095.131-.194.196-.296l.39-.627 1.224 1.219-.253.283zm-20.312.265c-.29-.765-.519-1.56-.677-2.365l.362-.079c.153.78.375 1.554.657 2.296l-.342.148zm8.614.227c-.585-.574-1.071-1.236-1.442-1.967l.326-.184c.352.693.812 1.32 1.367 1.865l-.25.286zm6.583 1.896l-.086-.379c.725-.183 1.412-.504 2.038-.95l.207.323c-.664.474-1.39.811-2.16 1.006zm-2.353.14c-.787-.092-1.55-.314-2.27-.659l.152-.354c.683.328 1.409.539 2.158.625l-.04.389zm10.824.815l-1.678-1.672.252-.283 1.678 1.67-.252.285zM3.769 24.436c-.518-.622-.986-1.286-1.394-1.976l.314-.207c.397.672.853 1.319 1.357 1.923l-.277.26zm18.998 2.414l-.226-.308c.599-.487 1.16-1.034 1.672-1.625l.272.263c-.525.607-1.103 1.17-1.718 1.67zm-15.398.692c-.674-.414-1.32-.885-1.917-1.4l.232-.302c.583.502 1.213.962 1.87 1.366l-.185.336zm11.266 1.57l-.109-.372c.722-.234 1.429-.54 2.1-.908l.17.346c-.691.38-1.418.695-2.16.934zm-6.93.204c-.761-.174-1.512-.413-2.232-.707l.132-.364c.704.288 1.436.52 2.178.691l-.078.38zm3.258.375c-.31 0-.63-.011-.95-.033l.023-.389c.326.021.656.034.964.032.436 0 .877-.026 1.308-.076l.04.388c-.456.052-.93.085-1.385.078z" mask="url(#ztyrdhmdwk)"/>
                </g>
                <g transform="translate(-20 -14) translate(20 14) translate(0 11.88)">
                    <mask id="s8ezb8tf9n" fill="#fff">
                        <use xlink:href="#ljj1n9ksnl"/>
                    </mask>
                    <path fill="url(#motg4d56qm)" d="M22.985 3.192C21.117 1.04 18.295.038 14.147.038c-2.351 0-4.566.608-6.456 1.765V.52H0v27.168h7.691V8.79c1.396-1.225 3.174-1.847 5.285-1.847 3.295 0 4.896 1.843 4.896 5.634v15.11h7.641V12.674c0-2.146-.037-3.171-.238-3.936 1.418-1.24 2.906-1.794 4.79-1.794 3.541 0 5.335 1.896 5.335 5.634v15.11h7.641v-15.11c0-8.674-3.638-12.54-11.801-12.54-2.997 0-5.91 1.115-8.255 3.154" mask="url(#s8ezb8tf9n)"/>
                </g>
                <g transform="translate(-20 -14) translate(20 14) translate(46.53)">
                    <mask id="u67b2axulq" fill="#fff">
                        <use xlink:href="#lz97e5awjo"/>
                    </mask>
                    <path fill="url(#x95hgf38qp)" d="M14.768.156C6.628.156.005 6.516.005 14.33c0 7.79 6.623 14.123 14.763 14.123 4.073 0 7.991-2.057 10.482-5.504l.22-.308-4.888-4.669-.276.428c-1.257 1.932-3.325 3.085-5.538 3.085-4.027 0-7.303-3.209-7.303-7.155 0-3.973 3.276-7.204 7.303-7.204 2.203 0 4.274 1.137 5.541 3.041l.273.41 4.987-4.657-.223-.308C22.806 2.144 18.95.156 14.768.156z" mask="url(#u67b2axulq)"/>
                </g>
                <g transform="translate(-20 -14) translate(20 14) translate(73.26 11.88)">
                    <mask id="jsce359qrt" fill="#fff">
                        <use xlink:href="#ml89fvu8rr"/>
                    </mask>
                    <path fill="url(#0zim05xqls)" d="M.49 14.298c0 8.102 5.94 14.211 13.813 14.211 5.04 0 9.577-2.129 12.14-5.688l.237-.327-4.938-4.192-.264.367c-1.378 1.927-3.833 3.123-6.405 3.123-3.451 0-6.06-1.94-6.93-5.097h19.248v-.43c0-.202.01-.427.023-.661.013-.277.026-.57.026-.861C27.44 5.81 22.285.038 14.303.038 6.43.038.49 6.17.49 14.298m13.813-7.936c4.233 0 5.534 2.668 5.843 5.093H8.18c.786-3.07 3.192-5.093 6.123-5.093" mask="url(#jsce359qrt)"/>
                </g>
            </g>
        </g>
    </g>
</svg>
